<svg width="609" height="157" viewBox="0 0 609 157" fill="none" xmlns="http://www.w3.org/2000/svg">
<path d="M77.6055 47.9834C82.0833 47.3359 86.6621 47 91.3193 47C92.0636 47 92.8058 47.0112 93.5459 47.0283C94.1348 47.0097 94.7259 47 95.3193 47C125.695 47 150.319 71.6243 150.319 102C150.319 132.376 125.695 157 95.3193 157C64.9437 157 40.3193 132.376 40.3193 102C40.3193 96.5476 41.1122 91.2803 42.5898 86.3076C31.1404 96.3338 22.8099 109.834 19.2432 125.163L0 115.727C7.81495 88.5143 27.4641 66.3087 53.0195 55.0371L67.7676 0H90.4639L77.6055 47.9834ZM95.3193 69C77.0939 69 62.3193 83.7746 62.3193 102C62.3193 120.225 77.0939 135 95.3193 135C113.545 135 128.319 120.225 128.319 102C128.319 83.7746 113.545 69 95.3193 69Z" fill="#004FC5"/>
<path d="M162.199 151V22.3001H187.759V151H162.199ZM236.434 153.52C225.394 153.52 217.054 149.8 211.414 142.36C205.894 134.8 203.134 123.34 203.134 107.98V56.5001H229.054V104.74C229.054 113.98 230.434 120.88 233.194 125.44C235.954 129.88 240.154 132.1 245.794 132.1C249.154 132.1 252.094 131.26 254.614 129.58C257.134 127.9 259.294 125.56 261.094 122.56C262.894 119.56 264.214 116.02 265.054 111.94C266.014 107.86 266.554 103.48 266.674 98.8001V56.5001H292.594V112.48V151H271.714L271.534 121.48H268.294C266.494 128.92 264.214 135.04 261.454 139.84C258.814 144.52 255.394 148 251.194 150.28C247.114 152.44 242.194 153.52 236.434 153.52ZM309.167 151V105.28V56.5001H330.587L330.767 88.7201H334.187C335.147 80.6801 336.767 74.1401 339.047 69.1001C341.447 64.0601 344.747 60.3401 348.947 57.9401C353.147 55.5401 358.367 54.3401 364.607 54.3401C365.687 54.3401 366.827 54.4001 368.027 54.5201C369.347 54.5201 370.847 54.7001 372.527 55.0601L371.447 82.6001C369.647 81.7601 367.667 81.1601 365.507 80.8001C363.347 80.4401 361.427 80.2601 359.747 80.2601C355.067 80.2601 351.047 81.3401 347.687 83.5001C344.327 85.6601 341.567 88.7801 339.407 92.8601C337.367 96.8201 335.987 101.68 335.267 107.44V151H309.167ZM380.013 151V56.5001H405.933V151H380.013ZM393.153 42.2801C388.113 42.2801 384.213 41.2601 381.453 39.2201C378.813 37.0601 377.493 33.9401 377.493 29.8601C377.493 25.6601 378.813 22.4801 381.453 20.3201C384.213 18.1601 388.113 17.0801 393.153 17.0801C398.313 17.0801 402.213 18.1601 404.853 20.3201C407.613 22.4801 408.993 25.6601 408.993 29.8601C408.993 33.8201 407.613 36.8801 404.853 39.0401C402.213 41.2001 398.313 42.2801 393.153 42.2801ZM466.475 153.52C458.315 153.52 451.175 152.32 445.055 149.92C438.935 147.52 433.835 144.16 429.755 139.84C425.675 135.52 422.615 130.42 420.575 124.54C418.535 118.54 417.515 112 417.515 104.92C417.515 97.4801 418.535 90.7001 420.575 84.5801C422.735 78.3401 425.855 72.9401 429.935 68.3801C434.015 63.8201 439.055 60.2801 445.055 57.7601C451.055 55.2401 457.895 53.9801 465.575 53.9801C473.255 53.9801 479.915 55.2401 485.555 57.7601C491.315 60.2801 495.935 63.8201 499.415 68.3801C503.015 72.8201 505.475 78.1001 506.795 84.2201L482.855 91.9601C482.495 88.2401 481.475 85.0601 479.795 82.4201C478.235 79.6601 476.075 77.6201 473.315 76.3001C470.675 74.8601 467.675 74.1401 464.315 74.1401C460.835 74.1401 457.835 74.8601 455.315 76.3001C452.795 77.6201 450.635 79.6001 448.835 82.2401C447.155 84.7601 445.835 87.8801 444.875 91.6001C444.035 95.2001 443.615 99.2801 443.615 103.84C443.615 110.32 444.455 115.84 446.135 120.4C447.935 124.84 450.515 128.26 453.875 130.66C457.355 132.94 461.615 134.08 466.655 134.08C471.455 134.08 475.295 133.18 478.175 131.38C481.055 129.46 483.155 127.06 484.475 124.18C485.915 121.18 486.815 118.12 487.175 115L509.855 120.04C509.255 124.72 507.935 129.1 505.895 133.18C503.975 137.26 501.215 140.8 497.615 143.8C494.015 146.8 489.635 149.2 484.475 151C479.435 152.68 473.435 153.52 466.475 153.52ZM517.488 151V22.3001H543.048V93.7601C546.768 91.2401 550.308 88.5401 553.668 85.6601C557.148 82.6601 560.268 79.5401 563.028 76.3001C565.908 73.0601 568.428 69.7601 570.588 66.4001C572.868 63.0401 574.788 59.7401 576.348 56.5001H606.048C604.248 61.0601 601.848 65.6801 598.848 70.3601C595.968 74.9201 592.488 79.1801 588.408 83.1401C584.448 86.9801 579.828 90.2801 574.548 93.0401C569.268 95.8001 563.448 97.6601 557.088 98.6201V101.68C565.128 100.24 571.788 100.36 577.068 102.04C582.348 103.72 586.668 106.42 590.028 110.14C593.508 113.74 596.268 117.94 598.308 122.74C600.348 127.42 602.208 132.16 603.888 136.96L608.028 151H579.768L577.428 142.18C575.748 136.3 573.888 131.14 571.848 126.7C569.808 122.26 567.108 118.84 563.748 116.44C560.508 113.92 556.008 112.66 550.248 112.66H543.048V151H517.488Z" fill="black"/>
</svg>
