<svg width="400" height="400" viewBox="0 0 400 400" fill="none" xmlns="http://www.w3.org/2000/svg">
<rect width="400" height="400" rx="100" fill="#004FC5"/>
<path d="M136.49 175.632C147.132 173.664 158.497 173.788 170.414 176.891C192.84 181.671 208 202.456 208 227.372C208 255.346 189.92 275.54 161.844 278.865C159.293 279.035 156.601 279.048 153.759 278.885C106.884 276.209 99.518 236.85 102.866 220.013C93.491 223.224 83.223 239.972 78.424 247.108L58 236.404C58.34 235.891 58.691 235.378 59.053 234.862C68.505 219.216 87.338 196.693 112.293 183.991L129.317 121H153.759L136.49 175.632ZM154.094 194.591C137.636 194.591 125.969 208.149 125.969 225.699C125.969 243.25 136.297 257.477 152.754 257.477C169.212 257.477 184.563 243.919 184.563 226.368C184.563 208.818 170.551 194.591 154.094 194.591Z" fill="white"/>
<path d="M219.78 279V232.45V178.68H244.86L245.43 212.69H249.23C250.117 203.823 251.763 196.793 254.17 191.6C256.703 186.28 260.25 182.417 264.81 180.01C269.497 177.603 275.26 176.4 282.1 176.4C283.113 176.4 284.253 176.463 285.52 176.59C286.787 176.59 288.243 176.717 289.89 176.97L288.75 209.65C286.723 208.637 284.507 208.003 282.1 207.75C279.82 207.37 277.793 207.18 276.02 207.18C271.08 207.18 266.773 208.13 263.1 210.03C259.553 211.93 256.703 214.843 254.55 218.77C252.523 222.697 251.193 227.637 250.56 233.59V279H219.78ZM302.706 281.47C296.119 281.47 291.179 280.077 287.886 277.29C284.719 274.503 283.136 270.197 283.136 264.37C283.136 258.417 284.719 254.047 287.886 251.26C291.179 248.473 296.119 247.08 302.706 247.08C309.419 247.08 314.422 248.473 317.716 251.26C321.009 254.047 322.656 258.417 322.656 264.37C322.656 275.77 316.006 281.47 302.706 281.47Z" fill="white"/>
</svg>
